<?xml version="1.0" standalone="no"?>
<!DOCTYPE svg PUBLIC "-//W3C//DTD SVG 20010904//EN"
 "http://www.w3.org/TR/2001/REC-SVG-20010904/DTD/svg10.dtd">
<svg version="1.0" xmlns="http://www.w3.org/2000/svg"
 width="134.000000pt" height="134.000000pt" viewBox="0 0 134.000000 134.000000"
 preserveAspectRatio="xMidYMid meet">

<g transform="translate(0.000000,134.000000) scale(0.100000,-0.100000)"
fill="#000000" stroke="none">
<path d="M1032 992 c-10 -7 -199 -502 -237 -622 -6 -20 -4 -21 85 -18 l92 3
115 314 c62 172 112 315 109 318 -9 9 -151 13 -164 5z"/>
<path d="M302 960 c-65 -33 -109 -76 -144 -143 -20 -36 -23 -57 -23 -142 0
-89 3 -106 27 -151 32 -60 93 -118 157 -148 36 -16 65 -21 131 -21 77 1 91 4
148 35 59 31 122 91 122 115 0 5 -29 26 -65 45 l-65 35 -15 -23 c-25 -34 -68
-52 -128 -52 -96 0 -161 67 -161 165 0 93 56 155 147 163 59 5 96 -9 135 -51
l24 -25 61 36 c34 20 64 37 66 39 6 4 -30 55 -58 79 -14 13 -48 35 -75 49 -42
21 -64 25 -136 25 -77 0 -94 -4 -148 -30z"/>
</g>
</svg>
